<?xml version="1.0" encoding="utf-8"?>
<!-- Generator: Adobe Illustrator 28.0.0, SVG Export Plug-In . SVG Version: 6.00 Build 0)  -->
<svg version="1.1" id="Calque_1" xmlns="http://www.w3.org/2000/svg" xmlns:xlink="http://www.w3.org/1999/xlink" x="0px" y="0px"
	 viewBox="0 0 20 35" style="enable-background:new 0 0 20 35;" xml:space="preserve">
<style type="text/css">
	.st0{fill:#141110;}
</style>
<path class="st0" d="M15.1,34.4c0.8,0.2,1.6-0.3,1.7-1.2L19.4,20c0.2-0.8-0.3-1.6-1.2-1.7c-0.8-0.2-1.6,0.3-1.7,1.2l-2.2,11.8
	L2.4,29c-0.8-0.2-1.6,0.3-1.7,1.2C0.5,31,1,31.8,1.8,31.9L15.1,34.4z"/>
<path class="st0" d="M13.5,32.1c-0.5,0-0.9-0.2-1.2-0.6c-0.1-0.2-13.5-19.7,1.4-30.7c0.7-0.5,1.6-0.3,2.1,0.3
	c0.5,0.7,0.4,1.6-0.3,2.1C2.8,12.4,14.2,29,14.7,29.7c0.5,0.7,0.3,1.6-0.4,2.1C14.1,32,13.8,32.1,13.5,32.1z"/>
</svg>
