<svg width="57" height="34" viewBox="0 0 57 34" fill="none" xmlns="http://www.w3.org/2000/svg">
<path d="M0.43934 21.4393C-0.146447 22.0251 -0.146447 22.9749 0.43934 23.5607L9.98528 33.1066C10.5711 33.6924 11.5208 33.6924 12.1066 33.1066C12.6924 32.5208 12.6924 31.5711 12.1066 30.9853L3.62132 22.5L12.1066 14.0147C12.6924 13.4289 12.6924 12.4792 12.1066 11.8934C11.5208 11.3076 10.5711 11.3076 9.98528 11.8934L0.43934 21.4393ZM55.3617 3.99361C56.1866 4.06999 56.9172 3.4632 56.9936 2.6383C57.07 1.8134 56.4632 1.08277 55.6383 1.00639L55.3617 3.99361ZM1.5 24C14.5613 24 21.6807 18.0517 28.6568 12.7574C32.1506 10.1058 35.5747 7.63844 39.7467 5.96217C43.8895 4.29764 48.8368 3.38946 55.3617 3.99361L55.6383 1.00639C48.6632 0.360542 43.2355 1.32736 38.6283 3.17846C34.0503 5.01781 30.3494 7.70669 26.8432 10.3676C19.8193 15.6983 13.4387 21 1.5 21L1.5 24Z" fill="#141011"/>
</svg>
