<?xml version="1.0" encoding="UTF-8"?>
<svg id="fleche-encyclo" data-name="fleche-encyclo" xmlns="http://www.w3.org/2000/svg" viewBox="0 0 20 35">
  <path fill="var(--primarycolor)" class="cls-1" d="m15.11,34.39c.83.16,1.58-.35,1.74-1.18l2.51-13.2c.16-.83-.35-1.58-1.18-1.74s-1.58.35-1.74,1.18l-2.25,11.81-11.81-2.25c-.83-.16-1.58.35-1.74,1.18s.35,1.58,1.18,1.74l13.28,2.46Z"/>
  <path class="cls-1" d="m13.47,32.06c-.47,0-.94-.22-1.23-.64-.14-.2-13.54-19.66,1.38-30.67.67-.49,1.61-.35,2.1.32.49.67.35,1.61-.32,2.1-12.56,9.27-1.19,25.83-.7,26.53.48.68.31,1.61-.37,2.09-.26.18-.56.27-.86.27Z"/>
</svg>
