<?xml version="1.0" encoding="utf-8"?>
<!-- Generator: Adobe Illustrator 26.0.0, SVG Export Plug-In . SVG Version: 6.00 Build 0)  -->
<svg version="1.1" id="fleche-qeel" xmlns="http://www.w3.org/2000/svg" xmlns:xlink="http://www.w3.org/1999/xlink" x="0px" y="0px"
	 viewBox="0 0 57 34" style="enable-background:new 0 0 57 34;" xml:space="preserve">
<style type="text/css">
	.st0{fill:var(--primarycolor);}
</style>
<path class="st0" d="M0.4,21.4c-0.6,0.6-0.6,1.5,0,2.1l9.5,9.5c0.6,0.6,1.5,0.6,2.1,0s0.6-1.5,0-2.1l-8.5-8.5l8.5-8.5
	c0.6-0.6,0.6-1.5,0-2.1s-1.5-0.6-2.1,0L0.4,21.4z M55.4,4c0.8,0.1,1.6-0.5,1.6-1.4S56.5,1.1,55.6,1L55.4,4z M1.5,24
	c13.1,0,20.2-5.9,27.2-11.2c3.5-2.7,6.9-5.1,11.1-6.8c4.1-1.7,9.1-2.6,15.6-2l0.3-3c-7-0.6-12.4,0.3-17,2.2
	c-4.6,1.8-8.3,4.5-11.8,7.2C19.8,15.7,13.4,21,1.5,21V24z"/>
</svg>
